<?xml version="1.0" encoding="UTF-8" standalone="no"?>
<svg
   width="1253.26"
   height="875.85999"
   viewBox="0 0 1253.26 875.85999"
   version="1.1"
   id="svg2"
   xmlns:xlink="http://www.w3.org/1999/xlink"
   xmlns="http://www.w3.org/2000/svg"
   xmlns:svg="http://www.w3.org/2000/svg">
  <defs
     id="defs1">
    <path
       id="a"
       d="m 55.692,7.886 c 0,-2.854 -0.607,-4.128 -2.048,-4.128 -1.441,0 -2.048,1.274 -2.048,4.128 0,2.857 0.607,4.136 2.048,4.136 1.441,0 2.048,-1.28 2.048,-4.136 z M 59.71,0.376 V 15.398 H 56.3 l -0.23,-1.05 c -0.677,1.05 -1.888,1.426 -3.26,1.426 -3.415,0 -5.23,-2.704 -5.23,-7.888 0,-5.03 1.895,-7.886 5.23,-7.886 1.372,0 2.583,0.453 3.26,1.428 L 56.3,0.375 h 3.41 z M 42.539,0 c -1.363,0 -2.427,0.453 -3.26,1.428 L 39.048,0.375 h -3.409 v 15.023 h 4.019 V 6.012 c 0,-1.503 0.608,-2.254 1.52,-2.254 0.983,0 1.362,0.6 1.362,2.254 v 9.386 h 4.015 V 4.358 C 46.554,1.429 45.266,0 42.54,0 Z m -16.11,6.16 h 4.17 c 0,-1.651 -0.76,-2.552 -1.972,-2.552 -1.288,0 -1.97,0.826 -2.198,2.552 z m 4.24,4.285 h 3.8 c -0.156,3.376 -2.203,5.329 -5.842,5.329 -4.021,0 -6.296,-2.779 -6.296,-7.813 0,-1.5 0.228,-2.852 0.683,-3.904 a 1.469,1.469 0 0 0 -0.683,-0.15 c -0.981,0 -2.121,0.826 -2.121,3.004 v 8.487 H 16.189 V 0.375 h 3.41 l 0.235,1.053 C 20.814,0.375 21.95,0 23.927,0 v 2.33 c 1.14,-1.504 2.73,-2.33 4.7,-2.33 3.491,0 5.609,2.33 5.913,6.307 0.081,0.98 0.081,1.654 0.081,2.707 h -8.27 c 0.078,2.103 0.91,3.154 2.355,3.154 1.133,0 1.817,-0.6 1.963,-1.723 z M 10.636,7.886 c 0,-2.854 -0.608,-4.128 -2.044,-4.128 -1.44,0 -2.048,1.274 -2.048,4.128 0,2.857 0.607,4.136 2.048,4.136 1.436,0 2.044,-1.28 2.044,-4.136 z m 4.02,-7.51 v 15.022 h -3.411 l -0.227,-1.05 c -0.68,1.05 -1.895,1.426 -3.262,1.426 -3.41,0 -5.232,-2.704 -5.232,-7.888 C 2.524,2.856 4.415,0 7.756,0 c 1.367,0 2.582,0.453 3.262,1.428 l 0.227,-1.053 h 3.41 z m 33.528,17.943 c -1.734,0 -3.112,0.452 -4.748,1.457 l -9.733,5.977 14.48,8.9 14.48,-8.9 -9.735,-5.977 c -1.636,-1.005 -3.005,-1.457 -4.744,-1.457 z m -33.706,0 c -1.736,0 -3.107,0.452 -4.749,1.457 L 0,25.753 l 14.478,8.9 14.478,-8.9 -9.729,-5.977 c -1.638,-1.005 -3.013,-1.457 -4.749,-1.457 z m 12.104,23.774 -9.729,-5.979 14.48,-8.903 14.475,8.903 -9.73,5.979 c -1.64,1.004 -2.772,1.7 -4.746,1.7 -1.978,0 -3.108,-0.696 -4.75,-1.7 z" />
  </defs>
  <g
     fill="none"
     fill-rule="evenodd"
     id="g2"
     transform="scale(20)">
    <mask
       id="b"
       fill="#ffffff">
      <use
         xlink:href="#a"
         id="use1" />
    </mask>
    <use
       fill="#1d1d1b"
       xlink:href="#a"
       id="use2" />
    <path
       fill="#111111"
       d="M 0,0 H 63 V 44 H 0 Z"
       mask="url(#b)"
       id="path2" />
  </g>
</svg>
